<svg width="30" height="30" viewBox="0 0 30 30" fill="none" xmlns="http://www.w3.org/2000/svg">
<path d="M1.16157 28.6854C0.585898 28.1127 0.585898 27.1843 1.16157 26.6117L26.8729 1.03689C27.4486 0.464268 28.382 0.464267 28.9577 1.03689C29.5333 1.6095 29.5333 2.5379 28.9577 3.11052L3.24628 28.6854C2.6706 29.258 1.73725 29.258 1.16157 28.6854Z" fill="#a30b0b"/>
<path d="M1.04235 1.31477C1.61803 0.742151 2.55138 0.742151 3.12706 1.31477L28.8384 26.8896C29.4141 27.4622 29.4141 28.3906 28.8384 28.9633C28.2628 29.5359 27.3294 29.5359 26.7537 28.9633L1.04235 3.38841C0.466677 2.81579 0.466677 1.88739 1.04235 1.31477Z" fill="#a30b0b"/>
</svg>
